<svg xmlns="http://www.w3.org/2000/svg" width="23" height="22.001" viewBox="0 0 23 22.001">
  <g id="Billing_and_Usage_grey" data-name="Billing and Usage grey" transform="translate(211.707 -211.425)">
    <path id="Path_4006" data-name="Path 4006" d="M55.023.315a5.449,5.449,0,0,0-5.167,3.378c-.016.039-.026.054-.026.056a.279.279,0,0,1-.065,0q-3.539-.006-7.078,0H41.17c-.632,0-.836.2-.84.831l-.085,12.392H37.989a.613.613,0,0,0-.7.694v1.457a3.12,3.12,0,0,0,3.183,3.186l4.5,0q3.183,0,6.38,0a5.106,5.106,0,0,0,.943-.061,3.086,3.086,0,0,0,2.535-3.112q0-2.771,0-5.542V11.2h.013a5.457,5.457,0,0,0,5.24-3.976c.06-.212.1-.428.142-.644l.058-.293.005-1.021L60.251,5.1A5.445,5.445,0,0,0,55.023.315M40.51,21.085a1.9,1.9,0,0,1-2-2V18.2H48.6c0,.051,0,.1,0,.153l.005.357c0,.292,0,.582.033.87a2.86,2.86,0,0,0,.613,1.505Zm13.1-6.284q0,2.184,0,4.369a1.889,1.889,0,0,1-3.758.3,5.481,5.481,0,0,1-.031-.877c0-.137.005-.275,0-.412v-.552a.594.594,0,0,0-.658-.656q-.706,0-1.412,0H41.467l.081-11.986H49.5a5.49,5.49,0,0,0,.27,2.6H46.81a1.35,1.35,0,0,0-.192.009.609.609,0,0,0-.02,1.206,1.421,1.421,0,0,0,.261.013h.657q1.4,0,2.8,0c.1.018.1.009.137.066a5.326,5.326,0,0,0,3.166,2.174q0,1.873,0,3.746m1.264-4.82h-.012a4.217,4.217,0,0,1,.025-8.434h.02A4.14,4.14,0,0,1,57.856,2.8a4.222,4.222,0,0,1-2.981,7.185" transform="translate(-249 211.112)" fill="currentColor"/>
    <path id="Path_4007" data-name="Path 4007" d="M51.681,14.019A1.307,1.307,0,0,0,51.387,14H46.813a1.089,1.089,0,0,0-.249.02.58.58,0,0,0-.479.6.591.591,0,0,0,.493.584.649.649,0,0,0,.154.015h4.731a.667.667,0,0,0,.22-.019.591.591,0,0,0,.473-.6.581.581,0,0,0-.475-.576" transform="translate(-249 211.112)" fill="currentColor"/>
    <path id="Path_4008" data-name="Path 4008" d="M46.786,10.8c-.64,0-.7.454-.7.592a.584.584,0,0,0,.16.431.707.707,0,0,0,.527.19l2.222,0,2.482,0a.612.612,0,0,0,.684-.594.579.579,0,0,0-.16-.425.709.709,0,0,0-.53-.194H46.786Z" transform="translate(-249 211.112)" fill="currentColor"/>
    <path id="Path_4009" data-name="Path 4009" d="M44.348,7.1a1.124,1.124,0,1,0,1.116,1.12A1.133,1.133,0,0,0,44.348,7.1m-.006,1.518a.4.4,0,1,1,.01-.789.4.4,0,1,1-.01.789" transform="translate(-249 211.112)" fill="currentColor"/>
    <path id="Path_4010" data-name="Path 4010" d="M54.907,5.279A.825.825,0,0,1,54.3,5a.631.631,0,0,1-.139-.5.689.689,0,0,1,.713-.61.681.681,0,0,1,.662.638c.038.36.244.571.529.536a.464.464,0,0,0,.333-.169.616.616,0,0,0,.112-.469,1.654,1.654,0,0,0-.926-1.343,2.338,2.338,0,0,0-.248-.105l-.04-.016V2.931a2.466,2.466,0,0,0,0-.272.478.478,0,0,0-.907-.154.775.775,0,0,0-.048.359c.009.1,0,.131-.124.179a1.629,1.629,0,0,0-1.018,1.686A1.649,1.649,0,0,0,54.431,6.19a2.232,2.232,0,0,0,.338.052c.065.007.129.013.194.024a.68.68,0,0,1,.482.327.694.694,0,0,1,.053.59.693.693,0,0,1-1.343-.22c-.041-.342-.239-.524-.533-.5a.482.482,0,0,0-.43.572A1.536,1.536,0,0,0,54.058,8.4c.242.116.3.212.284.447a.429.429,0,0,0,.109.326.489.489,0,0,0,.357.153h.008a.468.468,0,0,0,.48-.473c0-.087,0-.175,0-.263V8.559l.1-.036a1.67,1.67,0,0,0-.489-3.244" transform="translate(-249 211.112)" fill="currentColor"/>
    <path id="Path_4011" data-name="Path 4011" d="M44.348,10.278a1.124,1.124,0,1,0,1.116,1.12,1.133,1.133,0,0,0-1.116-1.12M44.342,11.8a.4.4,0,1,1,.01-.789.4.4,0,1,1-.01.789" transform="translate(-249 211.112)" fill="currentColor"/>
    <path id="Path_4012" data-name="Path 4012" d="M44.348,13.461a1.124,1.124,0,1,0,1.116,1.12,1.133,1.133,0,0,0-1.116-1.12m-.006,1.518a.4.4,0,1,1,.01-.789.4.4,0,1,1-.01.789" transform="translate(-249 211.112)" fill="currentColor"/>
  </g>
</svg>
