<svg xmlns="http://www.w3.org/2000/svg" width="27.213" height="19.102" viewBox="0 0 27.213 19.102">
  <g id="business_partner_ecosystem" data-name="business_partner_ecosystem" transform="translate(20467.207 10337.354)">
    <path id="Path_4418" data-name="Path 4418" d="M-20417.393-10317.838h0c.02-.01,4.871-2.066,6.158-1.857a20.8,20.8,0,0,1,4.223,1.857h2.4s2.992-1.66,3.328-1.322,3.393,5.553,3.2,6.322-3.391,2.248-3.391,2.248l-1.871,2.279s-3.477,3.861-4.172,3.918a37.693,37.693,0,0,1-7.2-1.686c-.734-.449-6.32-5.111-6.32-5.111Z" transform="translate(-42.541 -17)" fill="none" stroke="currentColor" stroke-width="1.25"/>
    <path id="Path_4419" data-name="Path 4419" d="M-20420.48-10311.467s-2.941-1.047-3.094-1.752,1.512-4.592,2.637-5.785,4.172,1.191,4.172,1.191" transform="translate(-43 -16.859)" fill="none" stroke="currentColor" stroke-width="1.25"/>
    <path id="Path_4420" data-name="Path 4420" d="M-20404.664-10309.117l-4.809-3.653s-1.635,2.062-2.965,2-3.65-.273-3.279-2.2,5.354-5.249,5.354-5.249l4.186.179,3.281,6.984Z" transform="translate(-40.585 -16.731)" fill="none" stroke="currentColor" stroke-width="1.25"/>
    <path id="Path_4421" data-name="Path 4421" d="M-20419.715-10307.785l2.883,2.771,3.711.845" transform="translate(-42.052 -14.831)" fill="none" stroke="currentColor" stroke-linecap="round" stroke-width="1.25"/>
  </g>
</svg>