<svg xmlns="http://www.w3.org/2000/svg" xmlns:xlink="http://www.w3.org/1999/xlink" width="28.885" height="23.513" viewBox="0 0 28.885 23.513">
  <defs>
    <clipPath id="clip-path">
      <rect id="Rectangle_2351" data-name="Rectangle 2351" width="28.884" height="23.513" transform="translate(0 0)" fill="none"/>
    </clipPath>
  </defs>
  <g id="camera" transform="translate(0 0)" opacity="0.7">
    <g id="Group_181955" data-name="Group 181955" clip-path="url(#clip-path)">
      <path id="Path_4343" data-name="Path 4343" d="M28.884,6.681V20.727a.272.272,0,0,0-.04.072,3.169,3.169,0,0,1-3.324,2.714q-11.082,0-22.165,0a4.1,4.1,0,0,1-.7-.047A3.174,3.174,0,0,1,0,20.257q-.008-6.5,0-13A3.187,3.187,0,0,1,3.342,3.9c1.147,0,2.294,0,3.44,0h.336V2.951A2.81,2.81,0,0,1,10.056,0q4.386-.008,8.77,0a3.088,3.088,0,0,1,.809.087,2.8,2.8,0,0,1,2.131,2.8c0,.326,0,.652,0,1.01h.364c1.24,0,2.482-.016,3.722.014a3.152,3.152,0,0,1,2.9,2.281c.045.16.085.322.127.484M14.435,20.761a7.052,7.052,0,1,0-7.044-7.09,7.077,7.077,0,0,0,7.044,7.09" fill="#fff"/>
      <path id="Path_4344" data-name="Path 4344" d="M19.1,13.717a4.657,4.657,0,1,1-4.631-4.668A4.664,4.664,0,0,1,19.1,13.717" fill="#fff"/>
    </g>
  </g>
</svg>
