<svg id="Company_Profile_grey" data-name="Company Profile grey" xmlns="http://www.w3.org/2000/svg" xmlns:xlink="http://www.w3.org/1999/xlink" width="24" height="22" viewBox="0 0 24 22">
  <defs>
    <clipPath id="clip-path">
      <rect id="Rectangle_2343" data-name="Rectangle 2343" width="24" height="22" fill="currentColor"/>
    </clipPath>
  </defs>
  <g id="Group_181926" data-name="Group 181926" clip-path="url(#clip-path)">
    <path id="Path_4102" data-name="Path 4102" d="M23.422,20.658a1.318,1.318,0,0,0-.172-.017V9.368c0-.646-.223-.865-.885-.865h-9V2.854c0-.712,0-1.424,0-2.136a.7.7,0,0,0-.325-.627.734.734,0,0,0-.727.01c-.049.024-.1.051-.144.077L9.914,1.41q-4.249,2.322-8.5,4.637a.925.925,0,0,0-.54.9Q.835,12.456.782,17.972L.759,20.478v.163c-.045,0-.085,0-.124.01A.686.686,0,0,0,0,21.322a.678.678,0,0,0,.635.668C.717,22,.8,22,.9,22H23.075a2.5,2.5,0,0,0,.323-.015.675.675,0,0,0,.6-.668.686.686,0,0,0-.578-.659m-5.264-.03H17.086V17.156h1.072Zm.534-4.841H16.545c-.594,0-.848.25-.848.833v4.009H13.382V9.866h8.469V20.629H19.535V16.62c0-.6-.236-.831-.843-.833M8.268,20.629h-2.3V17.158h2.3ZM2.16,17.885q.042-5.309.082-10.616c0-.106.018-.137.1-.184Q6.16,5.009,9.969,2.924l2.012-1.1V20.632H9.663V16.648c0-.619-.244-.861-.872-.862H5.457c-.631,0-.877.242-.877.855v3.988H2.141c0-.032,0-.065,0-.1Z" fill="currentColor"/>
    <path id="Path_4103" data-name="Path 4103" d="M8.988,14.564c.2.01.4,0,.6,0s.386.006.578,0a.534.534,0,0,0,.57-.533.516.516,0,0,0-.548-.525q-.6-.019-1.207,0a.529.529,0,0,0-.549.528.538.538,0,0,0,.552.529" fill="currentColor"/>
    <path id="Path_4104" data-name="Path 4104" d="M5.286,13.512c-.418-.017-.838-.017-1.257,0a.509.509,0,0,0-.528.516.526.526,0,0,0,.537.538c.2.011.4,0,.6,0s.419.01.628,0a.523.523,0,0,0,.528-.521.5.5,0,0,0-.512-.53" fill="currentColor"/>
    <path id="Path_4105" data-name="Path 4105" d="M4.009,9.7c.427.013.855.014,1.282,0A.513.513,0,0,0,5.8,9.161a.505.505,0,0,0-.508-.507c-.209-.011-.419,0-.629,0v0h-.6l-.051,0a.524.524,0,0,0,0,1.047" fill="currentColor"/>
    <path id="Path_4106" data-name="Path 4106" d="M8.952,9.7c.427.013.856.014,1.283,0a.523.523,0,0,0-.009-1.045c-.209-.01-.419,0-.628,0h0c-.21,0-.42-.006-.629,0A.524.524,0,1,0,8.952,9.7" fill="currentColor"/>
    <path id="Path_4107" data-name="Path 4107" d="M8.945,11.084a.522.522,0,0,0-.017,1.043c.443.018.889.019,1.332,0a.509.509,0,0,0,.48-.538.5.5,0,0,0-.488-.5c-.216-.016-.435,0-.653,0v0c-.218,0-.437-.011-.654,0" fill="currentColor"/>
    <path id="Path_4108" data-name="Path 4108" d="M4.044,12.133c.2.008.4,0,.6,0s.4.006.6,0A.525.525,0,0,0,5.8,11.6a.5.5,0,0,0-.518-.522c-.419-.015-.839-.015-1.257,0a.505.505,0,0,0-.522.52.526.526,0,0,0,.544.531" fill="currentColor"/>
    <path id="Path_4109" data-name="Path 4109" d="M20.627,14.03a.535.535,0,0,0-.532-.521c-.2-.013-.4,0-.6,0-.218,0-.437-.012-.654,0a.526.526,0,0,0,.009,1.052c.411.014.822.013,1.233,0a.534.534,0,0,0,.548-.533" fill="currentColor"/>
    <path id="Path_4110" data-name="Path 4110" d="M16.4,13.511c-.418-.016-.839-.016-1.257,0a.509.509,0,0,0-.524.52.526.526,0,0,0,.542.534c.2.01.4,0,.6,0s.42.011.629,0a.524.524,0,0,0,.524-.526.507.507,0,0,0-.517-.526" fill="currentColor"/>
    <path id="Path_4111" data-name="Path 4111" d="M18.8,12.126c.443.019.889.019,1.332,0a.522.522,0,0,0-.019-1.043c-.21-.014-.42,0-.629,0v-.005h-.6a.632.632,0,0,0-.076.006.527.527,0,0,0-.49.506.516.516,0,0,0,.486.537" fill="currentColor"/>
    <path id="Path_4112" data-name="Path 4112" d="M16.412,11.083c-.209-.014-.419,0-.628,0v-.005h-.6c-.025,0-.05,0-.075.007a.524.524,0,0,0,.013,1.046c.427.016.856.015,1.283,0a.513.513,0,0,0,.513-.532.505.505,0,0,0-.5-.514" fill="currentColor"/>
  </g>
</svg>
