<svg xmlns="http://www.w3.org/2000/svg" width="24" height="22" viewBox="0 0 24 22">
  <g id="Customer_Quote_grey" data-name="Customer Quote grey" transform="translate(145.191 -211.113)">
    <path id="Path_4014" data-name="Path 4014" d="M120.324,20.639H105.215V1.36h15.109V4.808h1.408V0H103.808V22h17.924V17.865h-1.408Z" transform="translate(-249 211.112)" fill="currentColor"/>
    <path id="Path_4015" data-name="Path 4015" d="M126.591,7.929l-2-1.942-1.217-1.179-1.217,1.183-7.476,7.245-.348.338-.086.42-.783,2.7-.869,2.863,2.955-.841,2.782-.759.434-.084.348-.336,7.476-7.246,1.217-1.179ZM118,16.582l-.054.015-2.782.758h-.016l-.4.114.117-.389v-.016l.783-2.7.015-.052,0-.012,2.349,2.276Zm7.567-7.291-6.544,6.342-2.382-2.308,6.545-6.342.189-.183.188.183,2,1.942.188.183Z" transform="translate(-249 211.112)" fill="currentColor"/>
    <rect id="Rectangle_1894" data-name="Rectangle 1894" width="7.997" height="1.361" transform="translate(-140.663 214.988)" fill="currentColor"/>
    <rect id="Rectangle_1895" data-name="Rectangle 1895" width="6.433" height="1.361" transform="translate(-140.663 218.948)" fill="currentColor"/>
    <rect id="Rectangle_1896" data-name="Rectangle 1896" width="3.303" height="1.361" transform="translate(-140.663 222.907)" fill="currentColor"/>
    <rect id="Rectangle_1897" data-name="Rectangle 1897" width="2.434" height="1.361" transform="translate(-140.663 226.867)" fill="currentColor"/>
  </g>
</svg>
