<svg xmlns="http://www.w3.org/2000/svg" width="22" height="22" viewBox="0 0 22 22">
  <g id="documents" data-name="Documents" transform="translate(16623.318 -1813)">
    <path id="Path_4349" data-name="Path 4349" d="M6.861,0H17.21a3.222,3.222,0,0,1,.372.278q2.071,2.053,4.135,4.113A.907.907,0,0,1,22,5.079q-.007,7.433,0,14.867A1.94,1.94,0,0,1,19.947,22q-7.018,0-14.035,0A6.381,6.381,0,0,1,4.9,21.919a5.787,5.787,0,0,1-2.066-10.7,5.9,5.9,0,0,1,2.342-.792v-.262q0-4.082,0-8.164A1.87,1.87,0,0,1,6.053.331,4.636,4.636,0,0,1,6.861,0M20.7,5.586H17.145a.665.665,0,0,1-.755-.751q0-1.654,0-3.308V1.289H7.223a.664.664,0,0,0-.75.755q0,4.081,0,8.162v.225a5.962,5.962,0,0,1,2.84,1.119.7.7,0,0,0,.386.13c2.314.008,4.627.006,6.941.006.56,0,1.121,0,1.681,0a.641.641,0,0,1,.147,1.269,1.275,1.275,0,0,1-.278.018H10.665a5.943,5.943,0,0,1,.948,2.578h5.731c.338,0,.676-.007,1.013,0a.639.639,0,0,1,.14,1.258,1.173,1.173,0,0,1-.3.027q-3.169,0-6.337,0h-.247a5.893,5.893,0,0,1-2.127,3.867H19.9c.573,0,.8-.232.8-.811q0-7.024,0-14.048ZM1.3,16.187a4.527,4.527,0,1,0,4.533-4.5,4.527,4.527,0,0,0-4.533,4.5M17.692,4.281h1.989L17.692,2.3Z" transform="translate(-16623.318 1813)" fill="currentColor"/>
    <path id="Path_4350" data-name="Path 4350" d="M147.972,136.226q2.353,0,4.706,0a.647.647,0,1,1,0,1.293h-9.326a1.28,1.28,0,0,1-.279-.018.645.645,0,0,1,.167-1.274q2.364,0,4.728,0" transform="translate(-16757.717 1684.593)" fill="currentColor"/>
    <path id="Path_4351" data-name="Path 4351" d="M53.8,253.5c.048-.045.106-.1.16-.151l2.351-2.346a.646.646,0,0,1,.666-.2.616.616,0,0,1,.462.491.684.684,0,0,1-.24.655q-1.186,1.178-2.367,2.361c-.188.188-.373.379-.566.562a.648.648,0,0,1-.976-.008q-.623-.612-1.236-1.234a.645.645,0,0,1-.023-.943.653.653,0,0,1,.945.035c.264.254.523.513.785.77,0,0,.013,0,.039.006" transform="translate(-16672.166 1576.599)" fill="currentColor"/>
  </g>
</svg>
