<svg xmlns="http://www.w3.org/2000/svg" width="22" height="16" viewBox="0 0 22 16">
  <g id="download" transform="translate(0 -0.001)">
    <g id="Group_182443" data-name="Group 182443" transform="translate(0 0.001)">
      <path id="Path_4382" data-name="Path 4382" d="M22,12.187c-.059.293-.1.591-.181.878A4,4,0,0,1,18.1,15.992c-.084,0-.169.006-.253.006Q11.409,16,4.97,16a4.778,4.778,0,0,1-3.559-1.449A4.723,4.723,0,0,1,3.479,6.629c.2-.06.412-.106.616-.157A6.73,6.73,0,0,1,11.383.018a6.747,6.747,0,0,1,4.95,2.49,6.4,6.4,0,0,1,1.49,5.332c.378.058.766.088,1.14.18a4.027,4.027,0,0,1,2.994,3.5.865.865,0,0,0,.042.152Zm-10.65,2.322c2.192,0,4.383,0,6.575,0A2.564,2.564,0,0,0,18.256,9.4c-.435-.038-.873-.018-1.309-.035a.72.72,0,0,1-.7-.935A6.132,6.132,0,0,0,16.4,6.091a5.5,5.5,0,0,0-10.962.737c-.007.571-.274.875-.793.9A3.363,3.363,0,0,0,1.56,11.847a3.313,3.313,0,0,0,3.306,2.662q3.241,0,6.483,0" transform="translate(0 -0.001)" fill="#868686"/>
      <path id="Path_4383" data-name="Path 4383" d="M14.8,9.417c.378-.246.68-.455,1-.649.563-.338,1.414-.171,1.58.305.073.212-.046.393-.273.54-.857.553-1.716,1.1-2.587,1.647a1.3,1.3,0,0,1-1.327-.008q-1.3-.819-2.582-1.65c-.389-.251-.392-.609-.03-.845a1.276,1.276,0,0,1,1.341.006c.326.2.635.412,1.02.6V5.006c0-.4.367-.663.913-.664.563,0,.94.265.941.67v4.4" transform="translate(-2.866 -0.001)" fill="#868686"/>
    </g>
  </g>
</svg>
