<svg id="excel_sheet" data-name="excel sheet" xmlns="http://www.w3.org/2000/svg" width="20.999" height="20" viewBox="0 0 20.999 20">
  <path id="Path_4246" data-name="Path 4246" d="M63.7,17.232H48.811a1.494,1.494,0,0,1-1.5-1.492V4.18a1.494,1.494,0,0,1,1.5-1.492H63.7a1.494,1.494,0,0,1,1.5,1.492V15.74a1.494,1.494,0,0,1-1.5,1.492" transform="translate(-44.192 0.041)" fill="#eceff1"/>
  <path id="Path_4247" data-name="Path 4247" d="M56.205,13.346c.659,0,1.318,0,1.957,0a.667.667,0,1,1,0,1.326c-.521,0-1.042,0-1.561,0h-.4Z" transform="translate(-44.265 -0.014)" fill="#388e3c"/>
  <path id="Path_4248" data-name="Path 4248" d="M56.205,10.679h.255c.57,0,1.139,0,1.71,0a.683.683,0,0,1,.691.452.664.664,0,0,1-.682.874c-.577.006-1.154,0-1.731,0h-.243Z" transform="translate(-44.265 -0.011)" fill="#388e3c"/>
  <path id="Path_4249" data-name="Path 4249" d="M56.205,8.013h.262c.562,0,1.125,0,1.688,0a.693.693,0,0,1,.7.439.662.662,0,0,1-.664.886c-.584.008-1.168,0-1.752,0-.074,0-.161.006-.236.01Z" transform="translate(-44.265 -0.009)" fill="#388e3c"/>
  <path id="Path_4250" data-name="Path 4250" d="M56.205,5.346c.677,0,1.317,0,1.957,0a.667.667,0,1,1,0,1.326c-.521,0-1.041,0-1.561,0h-.4Z" transform="translate(-44.265 -0.006)" fill="#388e3c"/>
  <path id="Path_4251" data-name="Path 4251" d="M61.564,6.674c-.21,0-.421,0-.631,0a.663.663,0,1,1-.012-1.324q.641-.015,1.284,0A.663.663,0,1,1,62.2,6.673c-.21.006-.421,0-.631,0" transform="translate(-44.315 -0.006)" fill="#388e3c"/>
  <path id="Path_4252" data-name="Path 4252" d="M61.568,9.34c-.21,0-.421,0-.631,0a.663.663,0,1,1-.02-1.324q.641-.015,1.284,0a.663.663,0,1,1,0,1.324c-.21.007-.421,0-.631,0" transform="translate(-44.315 -0.009)" fill="#388e3c"/>
  <path id="Path_4253" data-name="Path 4253" d="M61.563,10.679c.2,0,.407,0,.61,0a.665.665,0,1,1-.011,1.325q-.611.008-1.221,0a.664.664,0,1,1-.009-1.325c.21-.006.421,0,.631,0" transform="translate(-44.315 -0.011)" fill="#388e3c"/>
  <path id="Path_4254" data-name="Path 4254" d="M61.55,14.674c-.21,0-.421.005-.631,0a.663.663,0,1,1-.007-1.324q.643-.015,1.284,0a.663.663,0,1,1-.014,1.324c-.21.005-.421,0-.631,0" transform="translate(-44.315 -0.014)" fill="#388e3c"/>
  <path id="Path_4255" data-name="Path 4255" d="M56.385,19.068c0,.606-.073.717-.622.932h-.169a.352.352,0,0,0-.091-.045q-1.125-.212-2.253-.419-4.1-.757-8.21-1.508a.937.937,0,0,1-.8-.57V2.542a.882.882,0,0,1,.7-.545c1.078-.181,2.15-.393,3.225-.592q3.1-.574,6.2-1.148c.425-.08.849-.171,1.273-.257h.17a.8.8,0,0,1,.585.909Zm-5.838-8.155.533.6c.468.528.93,1.061,1.406,1.58a.685.685,0,0,0,1.192-.237.7.7,0,0,0-.2-.706q-.961-1.078-1.918-2.161c-.05-.056-.1-.113-.147-.172.595-.757,1.178-1.5,1.759-2.235.142-.181.294-.356.42-.548A.67.67,0,0,0,53.2,6.014a.712.712,0,0,0-.787.309q-.889,1.124-1.776,2.251c-.046.058-.1.115-.159.19-.081-.088-.151-.163-.219-.239-.482-.543-.962-1.087-1.447-1.629a.665.665,0,0,0-.684-.222.656.656,0,0,0-.5.484.7.7,0,0,0,.2.687c.558.625,1.11,1.255,1.67,1.877a.188.188,0,0,1,.01.3c-.408.5-.806,1.017-1.207,1.526-.19.241-.386.478-.564.727a.661.661,0,0,0,.118.916.7.7,0,0,0,.951-.074,2.284,2.284,0,0,0,.147-.177l1.6-2.025" transform="translate(-44.239 0)" fill="#2e7d32"/>
</svg>
