<svg xmlns="http://www.w3.org/2000/svg" width="16.801" height="16" viewBox="0 0 16.801 16">
  <path id="Favourite" d="M8.5,0A1.328,1.328,0,0,1,9.638.8c.575,1.158,1.153,2.315,1.723,3.476a.41.41,0,0,0,.354.254q1.951.271,3.9.564a1.294,1.294,0,0,1,1.1.9,1.266,1.266,0,0,1-.329,1.394Q15,8.75,13.588,10.092a.51.51,0,0,0-.165.524c.225,1.254.438,2.51.653,3.766a1.292,1.292,0,0,1-.535,1.348,1.3,1.3,0,0,1-1.455.093q-1.48-.768-2.956-1.542c-.182-.1-.367-.184-.545-.287a.349.349,0,0,0-.373,0q-1.748.919-3.5,1.827a1.344,1.344,0,0,1-1.994-.972,2.675,2.675,0,0,1,.062-.821q.289-1.734.6-3.463a.444.444,0,0,0-.146-.446Q1.821,8.768.422,7.4a1.347,1.347,0,0,1,.76-2.31C2.494,4.9,3.8,4.707,5.117,4.523a.355.355,0,0,0,.3-.219Q6.287,2.54,7.165.78A1.39,1.39,0,0,1,8.5,0" fill="#ffc400"/>
</svg>
