<svg xmlns="http://www.w3.org/2000/svg" width="23" height="20" viewBox="0 0 23 20">
  <g id="folder" transform="translate(1684.001 -3699)">
    <path id="Path_4380" data-name="Path 4380" d="M20.152,6.551c.309.017.581.012.848.05a2.514,2.514,0,0,1,1.9,3.21q-1.154,4.221-2.367,8.422a2.257,2.257,0,0,1-2.257,1.757c-1.661.007-3.323,0-4.984,0-3.612,0-7.223-.016-10.835.008A2.368,2.368,0,0,1,.14,18.283a3.138,3.138,0,0,1-.134-.855q-.012-7.41,0-14.819a2.4,2.4,0,0,1,2.28-2.6c1.74-.022,3.481,0,5.221,0A2.154,2.154,0,0,1,9.148.778c.3.336.615.665.909,1.011a1.557,1.557,0,0,0,1.264.582c2.116-.009,4.233,0,6.349,0,1.533,0,2.481,1.059,2.482,2.768V6.551" transform="translate(-1684 3699)" fill="#fec42d"/>
    <path id="Path_4381" data-name="Path 4381" d="M10.342,19.5q3.918,0,7.837,0a1.458,1.458,0,0,0,1.5-1.265q1.131-4.152,2.254-8.306a1.614,1.614,0,0,0-1.43-2.248q-7.877,0-15.753,0a1.447,1.447,0,0,0-1.441,1.2Q2.165,13.071,1.037,17.27a2.231,2.231,0,0,0-.044.907A1.477,1.477,0,0,0,2.531,19.5q3.905,0,7.811,0" transform="translate(-1684 3698.539)" fill="#ffd76f"/>
  </g>
</svg>
