<svg id="header_menu_grey" data-name="header menu grey" xmlns="http://www.w3.org/2000/svg" width="22" height="25" viewBox="0 0 22 25">
  <path id="Path_3334" data-name="Path 3334" d="M53.344,474.31H32.656a.828.828,0,0,1,0-1.62H53.344a.828.828,0,0,1,0,1.62Z" transform="translate(-32 -472.69)" fill="#5d5d5d"/>
  <path id="Path_3335" data-name="Path 3335" d="M53.344,486H32.656a.828.828,0,0,1,0-1.62H53.344a.828.828,0,0,1,0,1.62Z" transform="translate(-32 -472.69)" fill="#5d5d5d"/>
  <path id="Path_3336" data-name="Path 3336" d="M53.344,497.69H32.656a.828.828,0,0,1,0-1.62H53.344a.828.828,0,0,1,0,1.62Z" transform="translate(-32 -472.69)" fill="#5d5d5d"/>
</svg>
