<svg xmlns="http://www.w3.org/2000/svg" width="22" height="22" viewBox="0 0 22 22">
  <g id="help_grey" data-name="help grey" transform="translate(-42 -695)">
    <path id="Path_4334" data-name="Path 4334" d="M11,1.5A9.5,9.5,0,1,1,1.5,11,9.511,9.511,0,0,1,11,1.5M11,0A11,11,0,1,0,22,11,11,11,0,0,0,11,0" transform="translate(42 695)" fill="currentColor"/>
    <path id="Path_4335" data-name="Path 4335" d="M10.368,5.278a3.24,3.24,0,0,0-2.6,3.153.791.791,0,0,0,.772.81h.009a.792.792,0,0,0,.785-.776c.006-.093.012-.187.027-.279a1.664,1.664,0,1,1,1.72,1.931.81.81,0,0,0-.87.743.828.828,0,0,0,0,.165v1.844a1.236,1.236,0,0,0,.039.32.777.777,0,0,0,1.5,0,1.622,1.622,0,0,0,.038-.361V11.593a3.238,3.238,0,0,0-1.424-6.315" transform="translate(42 695)" fill="currentColor"/>
    <path id="Path_4336" data-name="Path 4336" d="M11,14.583a1.1,1.1,0,1,0,1.1,1.111,1.088,1.088,0,0,0-1.065-1.111H11" transform="translate(42 695)" fill="currentColor"/>
  </g>
</svg>
