<svg xmlns="http://www.w3.org/2000/svg" width="22.001" height="22" viewBox="0 0 22.001 22">
  <g id="product_kpis" data-name="product kpis" transform="translate(17399 -5420.876)">
    <path id="Path_4385" data-name="Path 4385" d="M21.33,18.457l-4.266-4.266c-.036-.035-.07-.071-.1-.108a9.151,9.151,0,0,0,.013-9.772l.6-.6a1.619,1.619,0,0,0,1.263.055,1.618,1.618,0,0,0,.891-.926c.02-.05.022-.048.088-.05h2.176V1.816h-.654c-.49,0-.974,0-1.46,0-.13,0-.139-.015-.176-.115A1.542,1.542,0,0,0,18.212.727a1.582,1.582,0,0,0-1.383,2.248l-.469.479A9.064,9.064,0,0,0,10.643.13c-.2-.033-.4-.06-.6-.087L9.734,0H8.561c-.092.014-.185.025-.277.037-.211.027-.42.054-.628.095A9.067,9.067,0,0,0,.7,5.683,8.248,8.248,0,0,0,.04,8.451a.388.388,0,0,1-.019.081A.539.539,0,0,0,0,8.622L0,9.885l.017.059a.547.547,0,0,1,.023.1,8.547,8.547,0,0,0,.73,2.839,9.134,9.134,0,0,0,5.2,4.911,8.876,8.876,0,0,0,4.121.538,8.876,8.876,0,0,0,3.854-1.3c.118-.077.149-.073.251.032,1.372,1.383,2.811,2.824,4.279,4.284A2.056,2.056,0,0,0,19.945,22a2.11,2.11,0,0,0,.726-.134,1.938,1.938,0,0,0,1.3-1.594,2.019,2.019,0,0,0-.645-1.815M18.255,1.706a.6.6,0,0,1,.592.607.593.593,0,0,1-.6.581h0a.583.583,0,0,1-.583-.593.6.6,0,0,1,.587-.6ZM20.9,20.484a1.043,1.043,0,0,1-1.549.326,2.139,2.139,0,0,1-.193-.175l-2.688-2.687-.04-.042,1.484-1.475.691.689q1.022,1.02,2.042,2.043a1.048,1.048,0,0,1,.251,1.32M15.026,16.44l1.43-1.426.692.691-1.432,1.428ZM17.4,9.182a8.153,8.153,0,0,1-8.055,8.2H9.2A8.213,8.213,0,0,1,9.039.963h.12A8.209,8.209,0,0,1,17.4,9.182" transform="translate(-17399 5420.876)" fill="currentColor"/>
    <path id="Path_4386" data-name="Path 4386" d="M9.505,1.477A7.814,7.814,0,0,0,8.99,17.1c.124.006.249.01.373.01a7.816,7.816,0,0,0,.142-15.63m.906,14.553a6.836,6.836,0,0,1-7.456-4.2,6.835,6.835,0,0,1-.472-3.075c0-.053.009-.07.007-.07h0a.189.189,0,0,1,.049-.005c.195,0,.387.005.583,0s.385,0,.576,0a.162.162,0,0,1,.069.029,1.568,1.568,0,0,0,2.218.889l.889.892c.2.2.392.4.593.589.045.043.05.05.021.117a1.57,1.57,0,0,0,.52,1.944,1.591,1.591,0,0,0,2.38-1.935c-.012-.029-.015-.084-.021-.084.625-.637,1.255-1.269,1.89-1.905l.351-.352A1.567,1.567,0,0,0,14.441,8.6a1.584,1.584,0,0,0,.323-1.83l.6-.6a6.78,6.78,0,0,1,.761,3.16,6.818,6.818,0,0,1-5.713,6.705M4.669,8.182a.59.59,0,0,1,.6-.589h0a.6.6,0,0,1,0,1.205H5.263a.583.583,0,0,1-.415-.173.611.611,0,0,1-.179-.443m3.658,3.665a.615.615,0,0,1,.6-.6h.008a.625.625,0,0,1,.6.607.614.614,0,0,1-.6.6h0a.608.608,0,0,1-.6-.613m5-3.784h0a.607.607,0,0,1-.6-.6A.578.578,0,0,1,12.9,7.04a.6.6,0,0,1,.432-.178h.008a.59.59,0,0,1,.586.6.6.6,0,0,1-.6.6M14.7,5.4c-.214.213-.43.427-.637.626a.119.119,0,0,1-.062,0,1.608,1.608,0,0,0-1.8.318,1.569,1.569,0,0,0-.308,1.785c.024.052.024.052-.021.1Q10.78,9.3,9.7,10.391c-.049.049-.056.052-.117.022a1.479,1.479,0,0,0-1.307,0c-.052.024-.06.025-.115-.03-.473-.478-.949-.956-1.428-1.428-.049-.047-.051-.049-.022-.114A1.591,1.591,0,0,0,6.741,7.6a1.566,1.566,0,0,0-.854-.874A1.592,1.592,0,0,0,5.269,6.6a1.563,1.563,0,0,0-.6.12,1.639,1.639,0,0,0-.888.91c-.008.022-.039.055-.035.059-.3.009-.606.007-.912.007H2.677a6.8,6.8,0,0,1,12.129-2.4Z" transform="translate(-17399 5420.876)" fill="currentColor"/>
  </g>
</svg>
