<svg xmlns="http://www.w3.org/2000/svg" width="33" height="22" viewBox="0 0 33 22">
  <path id="messaging_services" data-name="messaging services" d="M32.533,8.2a1.958,1.958,0,0,0-1.339-.639c0-.122,0-.243,0-.365.007-.362.014-.738-.014-1.112a11.9,11.9,0,0,0-.251-1.931A5.577,5.577,0,0,0,26.172.069a.688.688,0,0,1-.15-.038C26,.021,25.967.013,25.94,0l-.647,0-.027,0c-.173.041-.346.077-.52.114a11.626,11.626,0,0,0-1.167.29A4.993,4.993,0,0,0,21.4,1.887a.575.575,0,0,1-.5.216Q13.33,2.1,5.755,2.1H3.591A3.353,3.353,0,0,0,.468,3.814a4.366,4.366,0,0,0-.333.826c-.041.126-.081.251-.127.374L0,19.025l.006.037c.026.083.049.167.072.251a4.146,4.146,0,0,0,.181.549,3.29,3.29,0,0,0,3.256,2.126q5.16.013,10.315.006h3.8q.723,0,1.446,0c.475,0,.957,0,1.441,0,.628,0,1.261,0,1.887-.013a3.252,3.252,0,0,0,3.18-2.13,4.85,4.85,0,0,0,.26-1.527c.028-.478.022-.948.016-1.446,0-.17-.005-.343-.005-.516h.132c.171,0,.332,0,.49,0A1.436,1.436,0,0,0,27.75,15.6a.372.372,0,0,1,.242-.133c.22-.018.447-.013.667-.011.1,0,.21,0,.312,0a2.106,2.106,0,0,0,2.222-2.213c0-.093,0-.187,0-.289v-.046c.058-.008.111-.017.164-.021a1.805,1.805,0,0,0,1.624-1.723c.006-.212,0-.424,0-.636-.005-.28-.009-.571.011-.853A2,2,0,0,0,32.533,8.2m-.748,1.281c.017.513.017,1.025,0,1.518a.629.629,0,0,1-.66.672c-.1.005-.207.006-.312.006l-.4,0V8.8l.156,0c.183,0,.356-.007.529.005a.641.641,0,0,1,.688.68M25.1,14.6a.267.267,0,0,1,.186-.056h.024c.136.005.273.005.409,0h.347c.114,0,.226,0,.338,0a.28.28,0,0,1,.224.057.322.322,0,0,1,.068.23.339.339,0,0,1-.068.241.29.29,0,0,1-.215.069h-.113c-.333,0-.668,0-1,0a.277.277,0,0,1-.2-.069.354.354,0,0,1-.065-.258.3.3,0,0,1,.07-.214m-.054-1.264a1.35,1.35,0,0,0-1.2,1.128,1.538,1.538,0,0,0,.595,1.635.366.366,0,0,1,.193.393c0,.286,0,.57,0,.855,0,.425,0,.866-.013,1.3a3.69,3.69,0,0,1-.11.654c-.013.056-.026.112-.039.171-.069-.067-.121-.116-.172-.168l-5.233-5.425c-.024-.026-.049-.052-.073-.076-.515-.528-.862-.34-1.023-.181a.548.548,0,0,0-.171.388.971.971,0,0,0,.327.658q2.664,2.765,5.33,5.527a1.593,1.593,0,0,0,.215.176l.039.028c-.067.025-.133.051-.2.079a6.536,6.536,0,0,1-.664.234,2.1,2.1,0,0,1-.549.045h-.063q-9.309,0-18.619,0A2.374,2.374,0,0,1,2.2,20.4c.044-.051.086-.1.132-.148l4.223-4.4,1.188-1.239a.873.873,0,0,0,.278-.6.559.559,0,0,0-.18-.393c-.164-.157-.506-.348-.971.135q-2.6,2.7-5.195,5.417c-.083.085-.163.174-.242.263l-.051.057c-.016-.08-.034-.159-.053-.239a3.33,3.33,0,0,1-.113-.726Q1.2,13.732,1.206,8.939V6.589l.015.013c.134.112.256.214.377.318l9.13,7.881a3,3,0,0,0,3.656.528,8.163,8.163,0,0,0,1.186-.915c.11-.1.221-.194.333-.289.6-.507,1.191-1.021,1.793-1.544l.656-.568a.192.192,0,0,1,.016.021,2.134,2.134,0,0,0,.209.268,1.762,1.762,0,0,0,1.259.59c.486.009.969.009,1.436.005a.6.6,0,0,0,.65-.628c.011-1.5.011-2.833,0-4.067-.005-.447-.26-.574-.792-.638l-.007-.23c-.051-1.585-.1-3.081.959-4.367A4.167,4.167,0,0,1,26.59,1.4,4.149,4.149,0,0,1,29.873,5a9.446,9.446,0,0,1,.044,1.821c-.01.248-.02.5-.022.745-.637.093-.728.242-.729,1v3.369c0,.752.1.892.768.977a1.2,1.2,0,0,1-.169,1.007,1.059,1.059,0,0,1-.909.31c-.129-.008-.258-.005-.387,0l-.06,0c-.379.017-.652.023-.838-.374a1.067,1.067,0,0,0-1.01-.537l-.119,0a11.149,11.149,0,0,0-1.391.024m-4.362-1.665-.171,0c-.21,0-.407.005-.6-.009a.584.584,0,0,1-.593-.619c-.02-.505-.021-1.038,0-1.587a.588.588,0,0,1,.6-.651,3.182,3.182,0,0,1,.326-.014c.088,0,.178,0,.27,0l.172,0Zm-.779-4.9c0,.265,0,.53,0,.794a1.867,1.867,0,0,0-1.33.606A1.776,1.776,0,0,0,18.1,9.612a1.678,1.678,0,0,1-.79,1.706c-.758.59-1.49,1.237-2.2,1.864-.268.237-.537.475-.808.711a1.857,1.857,0,0,1-2.724.016Q9.159,11.827,6.743,9.74,4.087,7.45,1.428,5.159a.252.252,0,0,1-.105-.332,2.136,2.136,0,0,1,1.842-1.46c.146-.008.291-.014.437-.014H20.443A7.289,7.289,0,0,0,19.91,6.77" fill="currentColor"/>
</svg>
