<svg xmlns="http://www.w3.org/2000/svg" width="21" height="22" viewBox="0 0 21 22">
  <g id="suggest_a_new_idea" data-name="suggest a new idea" transform="translate(17457 -5912)">
    <path id="Path_4388" data-name="Path 4388" d="M16.686,8.636a6.341,6.341,0,0,0-5.859-5.12A6.144,6.144,0,0,0,5.995,5.448,6.287,6.287,0,0,0,4.781,7.223a.514.514,0,0,0,.2.71.476.476,0,0,0,.374.047.585.585,0,0,0,.342-.3c.012-.024.024-.049.055-.119a5.262,5.262,0,0,1,6.071-2.845A5.405,5.405,0,0,1,15.31,7.7a5.667,5.667,0,0,1-.035,4.806,7.444,7.444,0,0,1-1.291,1.774,3.429,3.429,0,0,0-.875,1.55c-.008.035-.014.052-.014.056s-.04,0-.066.005c-1.279-.005-2.559,0-3.836,0H7.985A3.976,3.976,0,0,0,6.93,14.177L6.86,14.1c-.09-.1-.179-.191-.266-.289a5.434,5.434,0,0,1-1.4-3.543,7.584,7.584,0,0,1,.048-.888q.018-.186.033-.372c.026-.358-.138-.594-.44-.632a.52.52,0,0,0-.569.5c-.036.248-.071.5-.088.747a6.488,6.488,0,0,0,1.31,4.448c.2.274.434.532.655.78.151.171.3.342.447.517a1.93,1.93,0,0,1,.458,1.306c-.006.445,0,.89.014,1.335l.011.486a1.749,1.749,0,0,0,.678,1.39.268.268,0,0,1,.111.267,1.781,1.781,0,0,0,1.12,1.735c.069.027.141.051.211.075l.086.03,2.541.01.152-.053a1.982,1.982,0,0,0,.286-.114,1.767,1.767,0,0,0,1.013-1.7l0-.061c0-.091,0-.092.025-.112a1.834,1.834,0,0,0,.765-1.575c0-.2,0-.395,0-.593,0-.346.006-.694-.012-1.039a2.26,2.26,0,0,1,.594-1.651c.124-.144.251-.284.4-.45a6.594,6.594,0,0,0,1.648-6.011m-7.1,12.33a.68.68,0,0,1-.5-.218.785.785,0,0,1-.2-.43h3.344a.741.741,0,0,1-.174.4.708.708,0,0,1-.527.245c-.672.019-1.328.019-1.951,0m2.4-2.876a.491.491,0,0,0,.134.361.623.623,0,0,0,.453.169l.444,0a.687.687,0,0,1-.168.356.885.885,0,0,1-.661.3c-.476.005-.954.005-1.431,0H9.786c-.28,0-.562,0-.843,0a.819.819,0,0,1-.828-.659h2.818a1.539,1.539,0,0,0,.165-.005.515.515,0,0,0,.448-.555.492.492,0,0,0-.477-.467c-.073,0-.145,0-.218,0H8.093v-.642h4.928v.642c-.151,0-.305,0-.456,0a.514.514,0,0,0-.582.5" transform="translate(-17457 5912)" fill="#868686"/>
    <path id="Path_4389" data-name="Path 4389" d="M20.962,10.461a.682.682,0,0,0-.607-.281c-.359.006-.72.005-1.079.005l-.608,0c-.088,0-.174,0-.259,0a.519.519,0,1,0,0,1.038,1.031,1.031,0,0,0,.119,0h.51c.442,0,.882,0,1.323,0h.017a.675.675,0,0,0,.588-.285L21,10.9v-.382Z" transform="translate(-17457 5912)" fill="#868686"/>
    <path id="Path_4390" data-name="Path 4390" d="M12.726,9.507c-.111.146-.222.292-.331.438a.514.514,0,0,0,.05.752.479.479,0,0,0,.365.117.565.565,0,0,0,.383-.229c.213-.271.424-.544.624-.824a1.131,1.131,0,0,0,.21-.866,1.168,1.168,0,0,0-.9-1.008,1.137,1.137,0,0,0-1.245.457c-.5.65-.993,1.3-1.5,1.966l-.345.455L9.7,10.384c-.218-.25-.436-.5-.662-.742a1.159,1.159,0,0,0-.936-.4,1.2,1.2,0,0,0-.886.465,1.213,1.213,0,0,0,.083,1.6q.666.76,1.339,1.513l.535.6a1.257,1.257,0,0,0,.937.456h.036a1.24,1.24,0,0,0,.933-.511c.331-.426.656-.856.981-1.287l.175-.231a.61.61,0,0,0,.147-.462.492.492,0,0,0-.207-.329.518.518,0,0,0-.751.164l-1.117,1.465c-.077.1-.148.158-.195.16,0,0-.089-.011-.214-.153L8.855,11.517c-.268-.3-.536-.6-.79-.907a.34.34,0,0,1-.05-.223.264.264,0,0,1,.1-.087.375.375,0,0,1,.216.1c.294.313.578.636.863.958.153.174.306.346.46.518a.531.531,0,0,0,.421.214.562.562,0,0,0,.418-.233c.027-.033.052-.066.1-.123l.614-.807q.726-.954,1.453-1.907a.315.315,0,0,1,.182-.139.138.138,0,0,1,.108.039c.124.1.043.242-.017.321Z" transform="translate(-17457 5912)" fill="#868686"/>
    <path id="Path_4391" data-name="Path 4391" d="M10.161,3.036a.477.477,0,0,0,.335.134h.013a.538.538,0,0,0,.506-.591q0-.992,0-1.984a.62.62,0,0,0-.166-.46A.5.5,0,0,0,10.491,0c-.118,0-.5.051-.507.606,0,.224,0,.448,0,.673v.59c0,.234,0,.467,0,.7a.647.647,0,0,0,.177.466" transform="translate(-17457 5912)" fill="#868686"/>
    <path id="Path_4392" data-name="Path 4392" d="M3.115,10.7a.534.534,0,0,0-.58-.513c-.228,0-.455,0-.684,0H1.256c-.231,0-.46,0-.69,0a.523.523,0,1,0,.009,1.041l1.05,0c.306,0,.611,0,.916,0a.606.606,0,0,0,.432-.168.5.5,0,0,0,.142-.36" transform="translate(-17457 5912)" fill="#868686"/>
    <path id="Path_4393" data-name="Path 4393" d="M3.427,4.224l.41.42c.233.241.464.482.708.708a.621.621,0,0,0,.4.145.481.481,0,0,0,.127-.016.537.537,0,0,0,.28-.232.965.965,0,0,1,.062-.078l.1-.105-.069-.124c-.019-.035-.035-.069-.05-.1a.8.8,0,0,0-.131-.208Q4.536,3.885,3.8,3.144a.5.5,0,0,0-.722-.015.524.524,0,0,0,.007.744c.112.119.227.235.342.351" transform="translate(-17457 5912)" fill="#868686"/>
    <path id="Path_4394" data-name="Path 4394" d="M16.067,5.53h.008a.55.55,0,0,0,.393-.182q.721-.726,1.432-1.464a.8.8,0,0,0,.138-.219c.015-.031.031-.065.051-.1l.066-.118-.088-.1c-.022-.026-.041-.053-.061-.08a.715.715,0,0,0-.22-.222.491.491,0,0,0-.609.12l-.68.695q-.376.383-.751.768a.509.509,0,0,0-.034.736.492.492,0,0,0,.355.17" transform="translate(-17457 5912)" fill="#868686"/>
    <path id="Path_4395" data-name="Path 4395" d="M4.516,16.075c-.241.243-.479.486-.717.731l-.269.27c-.157.157-.32.318-.465.495a.615.615,0,0,0-.1.523.518.518,0,0,0,.228.264,1.019,1.019,0,0,1,.083.064l.11.1.124-.077c.036-.023.071-.042.1-.06a.947.947,0,0,0,.215-.148q.708-.711,1.4-1.431a.585.585,0,0,0,.191-.422.516.516,0,0,0-.912-.3" transform="translate(-17457 5912)" fill="#868686"/>
    <path id="Path_4396" data-name="Path 4396" d="M18.029,17.72a.888.888,0,0,0-.139-.206c-.47-.486-.942-.971-1.418-1.448a.549.549,0,0,0-.4-.187h0a.49.49,0,0,0-.353.164.513.513,0,0,0,.038.754c.164.17.331.338.5.508l.386.4c.185.192.377.392.583.573a.55.55,0,0,0,.365.122.582.582,0,0,0,.177-.026.5.5,0,0,0,.255-.246c.018-.028.035-.057.055-.084l.081-.106-.069-.114c-.021-.035-.039-.067-.056-.1" transform="translate(-17457 5912)" fill="#868686"/>
  </g>
</svg>
