<svg xmlns="http://www.w3.org/2000/svg" width="22.408" height="25" viewBox="0 0 22.408 25">
  <g id="notification_grey" data-name="notification grey" transform="translate(0.002)">
    <path id="Path_3144" data-name="Path 3144" d="M1651.493,1189.409" transform="translate(-1640.29 -1184.539)" fill="currentColor"/>
    <path id="Path_3145" data-name="Path 3145" d="M1662.282,1204.974c-2.657-1.2-2.758-6.35-2.76-6.48v-3.455a8.042,8.042,0,0,0-4.919-7.4,3.11,3.11,0,0,0-6.219,0,8.041,8.041,0,0,0-4.919,7.4v3.455c0,.13-.1,5.28-2.76,6.48a.7.7,0,0,0,.29,1.347h6.735a3.96,3.96,0,0,0,1.047,2.039,3.719,3.719,0,0,0,5.433,0,3.964,3.964,0,0,0,1.046-2.039h6.736a.7.7,0,0,0,.29-1.347Zm-3.5-2.467a7.831,7.831,0,0,0,1.236,2.4h-17.049a7.812,7.812,0,0,0,1.235-2.4Zm-7.289-16.558a1.7,1.7,0,0,1,1.633,1.228,8.068,8.068,0,0,0-3.266,0,1.7,1.7,0,0,1,1.633-1.228Zm-6.619,12.55v-3.46a6.619,6.619,0,0,1,13.238,0v3.465a14.743,14.743,0,0,0,.3,2.593h-13.835a14.617,14.617,0,0,0,.3-2.6Zm6.619,9.63a2.472,2.472,0,0,1-2.316-1.808h4.633a2.474,2.474,0,0,1-2.317,1.808Zm0,0" transform="translate(-1640.29 -1184.539)" fill="currentColor"/>
  </g>
</svg>
