<svg xmlns="http://www.w3.org/2000/svg" width="18" height="20" viewBox="0 0 18 20">
  <g id="pdf" transform="translate(0)">
    <path id="Path_4256" data-name="Path 4256" d="M37.085,5.023V18.75A1.267,1.267,0,0,1,35.8,20H22.937a1.267,1.267,0,0,1-1.283-1.25V1.25A1.267,1.267,0,0,1,22.937,0h9.069Z" transform="translate(-19.085 0)" fill="#eceff1"/>
    <path id="Path_4257" data-name="Path 4257" d="M19.123,9.989c.125-.482.471-.586.927-.585q6.791.011,13.583,0c.066,0,.134,0,.2,0a.638.638,0,0,1,.666.668q.007,3.112,0,6.224a.655.655,0,0,1-.706.694c-.067,0-.134,0-.2,0q-6.77,0-13.543,0c-.456,0-.8-.1-.927-.585Zm6.216,3.356h0c0,.443-.006.885,0,1.328.006.345.118.446.462.447.421,0,.842,0,1.262,0a1.493,1.493,0,0,0,1-.393A1.826,1.826,0,0,0,28.632,13,1.616,1.616,0,0,0,27.2,11.6c-.449-.048-.906-.035-1.359-.04-.355,0-.5.138-.5.491,0,.429,0,.859,0,1.288m-3.451-.024H21.9c0,.488-.013.977.006,1.464a.326.326,0,0,0,.367.334.345.345,0,0,0,.341-.364,2.885,2.885,0,0,0,0-.436c-.013-.157.046-.205.2-.206a5.14,5.14,0,0,0,.955-.053,1.182,1.182,0,0,0,.96-1.316,1.223,1.223,0,0,0-1.225-1.217c-.366-.014-.734-.005-1.1,0s-.518.132-.522.511c0,.429,0,.858,0,1.287m7.442.022c0,.462,0,.925,0,1.387a.341.341,0,0,0,.373.389c.215,0,.333-.131.336-.378s.014-.49,0-.733c-.014-.2.048-.265.254-.26.366.011.733,0,1.1-.018a.318.318,0,0,0,.32-.277.353.353,0,0,0-.239-.374.681.681,0,0,0-.253-.046c-.206-.007-.413,0-.62,0-.562,0-.555,0-.561-.559,0-.175.066-.21.222-.207.407.008.814.006,1.221,0,.249,0,.4-.134.4-.343s-.12-.347-.369-.352c-.6-.011-1.2-.013-1.8,0-.277.006-.383.144-.384.424,0,.45,0,.9,0,1.347" transform="translate(-19.123 -0.085)" fill="#f15642"/>
    <path id="Path_4258" data-name="Path 4258" d="M25.355,13.313c0-.429,0-.859,0-1.288,0-.353.148-.494.51-.491.461.005.926-.008,1.383.04a1.633,1.633,0,0,1,1.458,1.391,1.807,1.807,0,0,1-.576,1.729,1.535,1.535,0,0,1-1.018.393c-.427.006-.856,0-1.284,0-.35,0-.464-.1-.47-.447-.008-.443,0-.885,0-1.328Zm.745,0c0,.317-.005.634,0,.95,0,.054.062.151.1.152a5.243,5.243,0,0,0,.954-.018,1.09,1.09,0,0,0,.828-1.308.981.981,0,0,0-.932-.867c-.256-.025-.516-.015-.773-.03-.149-.008-.183.059-.18.19.007.311,0,.62,0,.931" transform="translate(-19.145 -0.037)" fill="#fff"/>
    <path id="Path_4259" data-name="Path 4259" d="M21.9,13.289c0-.429,0-.859,0-1.287,0-.379.144-.511.532-.511.373,0,.747-.01,1.12,0a1.235,1.235,0,0,1,1.247,1.217,1.185,1.185,0,0,1-.976,1.316,5.339,5.339,0,0,1-.973.053c-.159,0-.219.049-.206.206a2.836,2.836,0,0,1,0,.436.348.348,0,0,1-.347.364.331.331,0,0,1-.374-.334c-.019-.487-.006-.976-.006-1.464H21.9m.732-.5h.016c0,.152.005.3,0,.456,0,.112.043.151.156.148.238-.006.475.005.713,0a.6.6,0,0,0,.551-.758c-.1-.333-.3-.449-.777-.446-.2,0-.474-.06-.588.041s-.053.369-.07.562" transform="translate(-19.131 -0.037)" fill="#fff"/>
    <path id="Path_4260" data-name="Path 4260" d="M29.356,13.311c0-.449,0-.9,0-1.347,0-.28.109-.418.391-.424.611-.014,1.222-.012,1.833,0,.254.005.384.147.376.352s-.158.34-.412.343c-.414.005-.828.007-1.243,0-.159,0-.227.032-.226.207.006.558,0,.559.571.559.211,0,.421-.005.631,0a.7.7,0,0,1,.258.046.353.353,0,0,1,.244.374.321.321,0,0,1-.326.277c-.373.014-.746.029-1.119.018-.21-.005-.273.061-.259.26.018.243.007.488,0,.733s-.123.376-.342.378a.344.344,0,0,1-.38-.389c0-.462,0-.925,0-1.387" transform="translate(-19.149 -0.037)" fill="#fff"/>
    <path id="Path_4261" data-name="Path 4261" d="M26.089,13.3c0-.311.005-.62,0-.931,0-.131.03-.2.18-.19.257.015.517.005.773.03a.981.981,0,0,1,.932.867,1.09,1.09,0,0,1-.828,1.308,5.243,5.243,0,0,1-.954.018c-.034,0-.093-.1-.1-.152-.009-.316,0-.633,0-.95" transform="translate(-19.135 -0.023)" fill="#f15642"/>
    <path id="Path_4262" data-name="Path 4262" d="M22.616,12.78c.017-.194-.039-.465.07-.562s.385-.04.588-.041c.477,0,.674.113.777.446a.6.6,0,0,1-.551.758c-.238.009-.475,0-.713,0-.114,0-.16-.037-.156-.148.007-.152,0-.3,0-.456h-.016" transform="translate(-19.128 -0.012)" fill="#f15642"/>
    <path id="Path_4263" data-name="Path 4263" d="M33.266,4.985h3.915V8.721Z" transform="translate(-19.182 -0.017)" fill="#e2e5e7"/>
    <path id="Path_4264" data-name="Path 4264" d="M37.2,5.076h-3.9A1.288,1.288,0,0,1,32,3.807V.02Z" transform="translate(-19.201 0)" fill="#cad1d8"/>
  </g>
</svg>
