<svg id="power_point" data-name="power point" xmlns="http://www.w3.org/2000/svg" width="21" height="20" viewBox="0 0 21 20">
  <path id="Path_4233" data-name="Path 4233" d="M116.843,17.294H101.959a1.494,1.494,0,0,1-1.5-1.492V4.242a1.494,1.494,0,0,1,1.5-1.492h14.884a1.494,1.494,0,0,1,1.5,1.492V15.8a1.494,1.494,0,0,1-1.5,1.492" transform="translate(-97.339 0.042)" fill="#eceff1"/>
  <path id="Path_4234" data-name="Path 4234" d="M109.322,13.349h5.856a2.093,2.093,0,0,1,.211,0,.661.661,0,0,1,.626.868.7.7,0,0,1-.736.451h-5.958Z" transform="translate(-97.523 -0.014)" fill="#f57c00"/>
  <path id="Path_4235" data-name="Path 4235" d="M109.322,6.712a3.394,3.394,0,0,1,2.69-1.347V8.737h3.365a3.221,3.221,0,0,1-1.788,2.934,3.326,3.326,0,0,1-4.268-.915Z" transform="translate(-97.523 -0.04)" fill="#f57c00"/>
  <path id="Path_4236" data-name="Path 4236" d="M113.338,4.051a3.282,3.282,0,0,1,3.3,3.305c-.059,0-.121.011-.183.011-.968,0-1.938,0-2.906,0-.174,0-.228-.046-.226-.223.007-.972,0-1.943,0-2.914,0-.062.006-.124.01-.184" transform="translate(-97.463 -0.012)" fill="#f57c00"/>
  <path id="Path_4237" data-name="Path 4237" d="M109.53,19.209a.69.69,0,0,1-.408.712c-.069.03-.141.053-.211.079h-.127c-.258-.057-.515-.123-.774-.171q-4.781-.884-9.562-1.761c-.444-.082-.908-.117-1.063-.651V2.584A.84.84,0,0,1,98.079,2c1.313-.227,2.62-.481,3.93-.723Q104.77.769,107.531.26c.432-.081.864-.173,1.3-.26h.127c.477.151.587.5.583.955Zm-6.727-7.2c.112,0,.194,0,.277,0a13.556,13.556,0,0,0,1.577-.054,2.67,2.67,0,0,0,2.195-2.873,2.713,2.713,0,0,0-2.606-2.431c-.7-.007-1.392,0-2.088,0a.675.675,0,0,0-.732.729q0,3.29,0,6.578a.839.839,0,0,0,.023.226.694.694,0,0,0,.78.489A.681.681,0,0,0,102.8,14c0-.651,0-1.3,0-1.989" transform="translate(-97.386 0)" fill="#ef6c00"/>
  <path id="Path_4238" data-name="Path 4238" d="M102.738,8.053c.541,0,1.07-.039,1.59.01a1.313,1.313,0,0,1,0,2.58c-.521.048-1.05.01-1.591.01Z" transform="translate(-97.398 -0.018)" fill="#ef6c00"/>
</svg>
