<svg xmlns="http://www.w3.org/2000/svg" xmlns:xlink="http://www.w3.org/1999/xlink" width="22.455" height="23.462" viewBox="0 0 22.455 23.462">
  <defs>
    <clipPath id="clip-path">
      <rect id="Rectangle_2348" data-name="Rectangle 2348" width="22.456" height="23.462" transform="translate(0 0)" fill="currentColor"/>
    </clipPath>
  </defs>
  <g id="Products_grey" data-name="Products grey" transform="translate(0 0)">
    <g id="Group_181937" data-name="Group 181937" clip-path="url(#clip-path)">
      <path id="Path_4339" data-name="Path 4339" d="M22.436,19.154a.826.826,0,0,0-.874-.521c-.148.008-.3.006-.444.005v-.127c0-.283,0-.553,0-.824a.575.575,0,0,0-.543-.614.553.553,0,0,0-.412.144.629.629,0,0,0-.184.461c0,.274,0,.548,0,.828v.114H11.812V10.472H14.2v.545c0,.426,0,.851,0,1.278a.836.836,0,0,0,.4.755.769.769,0,0,0,.8-.061.773.773,0,0,1,.968,0,.764.764,0,0,0,.794.062.835.835,0,0,0,.4-.757q0-.639,0-1.278v-.542h2.407v5.539c0,.053,0,.1,0,.155a.572.572,0,0,0,.548.583h.019a.579.579,0,0,0,.57-.549,1.835,1.835,0,0,0,0-.2v-5.64a.937.937,0,0,0-1.046-1.05h-3.6L16.454.983A.9.9,0,0,0,15.52,0q-4.3,0-8.6,0A.889.889,0,0,0,6,.929c0,.508,0,1.017,0,1.525a.57.57,0,0,0,.565.625h0a.574.574,0,0,0,.573-.619c0-.316,0-.632,0-.948V1.154h2.4v.6q0,.609,0,1.217a.847.847,0,0,0,.4.768.781.781,0,0,0,.806-.07.756.756,0,0,1,.951,0,.773.773,0,0,0,.8.067.859.859,0,0,0,.4-.774q0-.645,0-1.289V1.159H15.3V9.3H7.143V4.1a1.051,1.051,0,0,0-.011-.211.562.562,0,0,0-.58-.484.551.551,0,0,0-.548.521C6,3.984,6,4.041,6,4.144V9.291l-3.583.023A.943.943,0,0,0,1.337,10.4v8.24h0c-.177,0-.348,0-.518,0A.742.742,0,0,0,0,19.447c0,.251,0,1.5,0,1.755a.749.749,0,0,0,.826.826h.416c0,.15,0,.294,0,.438a.911.911,0,0,0,.587.976l1.3.019.089-.016a.9.9,0,0,0,.6-.972c-.009-.141-.007-.283,0-.43H18.646c0,.144,0,.288,0,.431a.894.894,0,0,0,.6.971l1.34.016.046-.019a.91.91,0,0,0,.587-.974c-.009-.145-.007-.29,0-.443.114,0,.22,0,.328,0a.84.84,0,0,0,.9-.521l.02-2.256ZM20.059,22.3H19.8v-.266h.262Zm-17.4,0H2.394v-.258h.267Zm2.228-9.95a.761.761,0,0,0,1.105.7,2.733,2.733,0,0,0,.253-.138.881.881,0,0,1,.336-.149c.064-.018.2.076.309.143a2.446,2.446,0,0,0,.256.145.772.772,0,0,0,.747-.035.8.8,0,0,0,.359-.688c.005-.44,0-.88,0-1.32v-.538h2.385V18.62H2.494V10.47H4.887v.762c0,.373,0,.746,0,1.12m2.2-.633a1.19,1.19,0,0,0-1.049,0v-1.25H7.094Zm14.212,9.146H1.157V19.793H21.306Zm-5.952-9.141V10.465H16.41v1.252a1.2,1.2,0,0,0-1.056.007M10.708,2.4V1.154h1.045V2.406a1.24,1.24,0,0,0-.527-.123,1.2,1.2,0,0,0-.518.121" fill="currentColor"/>
      <path id="Path_4340" data-name="Path 4340" d="M14.362,15.35a.757.757,0,0,0-.808.807q0,.614,0,1.225a.771.771,0,0,0,.833.83h3a.767.767,0,0,0,.825-.814q0-.623,0-1.246a.752.752,0,0,0-.809-.8q-1.52,0-3.041,0m2.691,1.712H14.71V16.5h2.343Z" fill="currentColor"/>
      <path id="Path_4341" data-name="Path 4341" d="M10.771,8.9h1.363q.294,0,.588,0a.767.767,0,0,0,.832-.829c.006-.4,0-.79,0-1.185a.769.769,0,0,0-.85-.856q-1.479,0-2.961,0a.767.767,0,0,0-.844.839q-.006.593,0,1.185a.778.778,0,0,0,.86.847h1.011m-.714-1.707H12.4V7.74H10.057Z" fill="currentColor"/>
      <path id="Path_4342" data-name="Path 4342" d="M4.243,16.158q0,.613,0,1.224a.766.766,0,0,0,.831.83h3A.769.769,0,0,0,8.9,17.4q.008-.624,0-1.248a.757.757,0,0,0-.812-.8c-.391,0-.781,0-1.172,0H6.087c-.348,0-.695,0-1.043,0a.753.753,0,0,0-.8.808m1.15.346H7.747v.549H5.393Z" fill="currentColor"/>
    </g>
  </g>
</svg>
