<svg xmlns="http://www.w3.org/2000/svg" width="25" height="22" viewBox="0 0 25 22">
  <g id="report_a_problem" data-name="report a problem" transform="translate(17404 -6002)">
    <path id="Path_4397" data-name="Path 4397" d="M0,19.236A5.889,5.889,0,0,1,.792,17.6Q5.569,9.44,10.349,1.284a2.443,2.443,0,0,1,3.77-.666,2.692,2.692,0,0,1,.526.656q5.007,8.529,10,17.067a2.385,2.385,0,0,1-1.615,3.611,3.593,3.593,0,0,1-.7.046q-9.816,0-19.63,0A2.436,2.436,0,0,1,.029,20c0-.014-.019-.025-.029-.037v-.722m12.5,1.3c3.312,0,6.624-.017,9.936.012a.992.992,0,0,0,.9-1.545Q18.349,10.538,13.4,2.052a.97.97,0,0,0-1.788,0Q6.64,10.53,1.665,19.006a.993.993,0,0,0,.9,1.545c3.312-.029,6.624-.012,9.936-.012" transform="translate(-17404 6002)" fill="#868686"/>
    <path id="Path_4398" data-name="Path 4398" d="M14.749,7.8c-.069,1.279-.124,2.561-.211,3.84a2.035,2.035,0,0,1-4,.4,6.56,6.56,0,0,1-.12-1.167c-.062-1.073-.127-2.144-.165-3.217a2.22,2.22,0,0,1,1.979-2.32,2.25,2.25,0,0,1,2.484,1.82,4.573,4.573,0,0,1,.044.644Zm-3.024-.148c.014.256.027.514.042.769.059,1.033.114,2.066.181,3.1a.554.554,0,1,0,1.107-.006q.121-1.932.225-3.865a.783.783,0,1,0-1.555,0" transform="translate(-17404 6002)" fill="#868686"/>
    <path id="Path_4399" data-name="Path 4399" d="M12.508,14.761a2.211,2.211,0,1,1-2.249,2.191,2.231,2.231,0,0,1,2.249-2.191m-.016,2.958a.752.752,0,1,0,.019-1.5.772.772,0,0,0-.773.744.763.763,0,0,0,.754.759" transform="translate(-17404 6002)" fill="#868686"/>
  </g>
</svg>
