<svg xmlns="http://www.w3.org/2000/svg" width="22" height="22" viewBox="0 0 22 22">
  <g id="Reports_grey" data-name="Reports grey" transform="translate(177.58 -211.893)">
    <path id="Path_4002" data-name="Path 4002" d="M93.17,4.836q-1.89-1.914-3.805-3.8a.888.888,0,0,0-.581-.242Q84.368.774,79.953.782a1.316,1.316,0,0,0-1.365,1.377q0,.644,0,1.288v.6a7.76,7.76,0,0,0-6.141,3.879,7.752,7.752,0,0,0,.6,8.606,7.705,7.705,0,0,0,5.541,3v.441c0,.5,0,.983,0,1.47a1.31,1.31,0,0,0,1.351,1.345l6.063,0,6.062,0a1.316,1.316,0,0,0,1.355-1.365q0-8-.006-16a.884.884,0,0,0-.243-.582m-1.879-.112H89.7c-.214,0-.221-.022-.221-.209V2.91ZM74.154,15.959a6.449,6.449,0,0,1-1.139-6.413,6.571,6.571,0,0,1,5.572-4.294v1q0,2.594,0,5.189a.251.251,0,0,1-.034.122q-1.913,1.926-3.834,3.841Zm.849.854,3.131-3.124c.42-.419.839-.838,1.262-1.254a.2.2,0,0,1,.074-.046q3.024-.009,6.049,0h.208a6.328,6.328,0,0,1-.709,2.429,6.545,6.545,0,0,1-10.015,2M91.94,21.574H80.063c-.269,0-.269,0-.27-.272V19.534l.241-.037c.324-.049.642-.1.954-.17a7.716,7.716,0,0,0,5.941-6.87c.015-.176.029-.353.033-.53a.631.631,0,0,0-.728-.749H79.793V2.259c0-.272,0-.272.27-.272h8.2l0,2.54a1.318,1.318,0,0,0,1.406,1.4h2.51l.028,15.375c0,.268,0,.268-.274.268m-6.022-9.421v-.009h0v.009Z" transform="translate(-249 211.112)" fill="currentColor"/>
    <path id="Path_4003" data-name="Path 4003" d="M87.249,9.83a9.757,9.757,0,0,0-.106-1.039,6.393,6.393,0,0,0-6.132-5.226.675.675,0,0,0-.505.151.672.672,0,0,0-.159.495V9.857a.545.545,0,0,0,.607.61h5.684a.614.614,0,0,0,.473-.168.6.6,0,0,0,.137-.469m-5.818-.45V4.671A5.306,5.306,0,0,1,86.148,9.38Z" transform="translate(-249 211.112)" fill="currentColor"/>
    <path id="Path_4004" data-name="Path 4004" d="M88.833,15.5h0a2.735,2.735,0,1,0,0,5.47h.006a2.74,2.74,0,0,0,2.724-2.737A2.743,2.743,0,0,0,88.833,15.5m1.185,3.933a1.576,1.576,0,0,1-1.212.5,1.693,1.693,0,0,1,.026-3.386h0a1.69,1.69,0,0,1,1.184,2.89" transform="translate(-249 211.112)" fill="currentColor"/>
    <rect id="Rectangle_1891" data-name="Rectangle 1891" width="3.536" height="1.175" transform="translate(-161.041 218.558)" fill="currentColor"/>
    <rect id="Rectangle_1892" data-name="Rectangle 1892" width="2.986" height="1.186" transform="translate(-160.494 220.7)" fill="currentColor"/>
    <rect id="Rectangle_1893" data-name="Rectangle 1893" width="3.886" height="1.179" transform="translate(-161.395 222.861)" fill="currentColor"/>
    <path id="Path_4005" data-name="Path 4005" d="M88.428,18.174l-.393-.36-.564.562.632.63a.419.419,0,0,0,.662,0l.893-.893.232-.252-.584-.57Z" transform="translate(-249 211.112)" fill="currentColor"/>
  </g>
</svg>
