<svg id="settings_grey" data-name="settings grey" xmlns="http://www.w3.org/2000/svg" xmlns:xlink="http://www.w3.org/1999/xlink" width="22" height="22" viewBox="0 0 22 22">
  <defs>
    <clipPath id="clip-path">
      <rect id="Rectangle_2344" data-name="Rectangle 2344" width="22" height="22" fill="currentColor"/>
    </clipPath>
  </defs>
  <g id="Group_181930" data-name="Group 181930" clip-path="url(#clip-path)">
    <path id="Path_4337" data-name="Path 4337" d="M16.708,19.963a2.16,2.16,0,0,1-1.562-.66.674.674,0,0,0-.712-.191.685.685,0,0,0-.486.53,1.3,1.3,0,0,0-.016.251,2.149,2.149,0,0,1-1.61,2.041.933.933,0,0,1-.224.043,19.427,19.427,0,0,1-2.239-.022,2.061,2.061,0,0,1-1.79-2.082.724.724,0,0,0-.432-.739.715.715,0,0,0-.829.2A2.138,2.138,0,0,1,3.744,19.3q-.534-.521-1.053-1.053a2.139,2.139,0,0,1-.02-3.064.7.7,0,0,0,.2-.809.718.718,0,0,0-.731-.442A2.144,2.144,0,0,1,0,11.768Q0,11.012,0,10.255A2.151,2.151,0,0,1,2.155,8.073a.7.7,0,0,0,.758-.558.738.738,0,0,0-.246-.7,2.136,2.136,0,0,1-.293-2.654A2.531,2.531,0,0,1,2.7,3.752c.341-.351.688-.7,1.037-1.037a2.141,2.141,0,0,1,3.1-.022.691.691,0,0,0,.794.184.7.7,0,0,0,.438-.689A2.144,2.144,0,0,1,10.312.007a14.292,14.292,0,0,1,1.806.042,2.1,2.1,0,0,1,1.815,2.092,1.218,1.218,0,0,0,.02.25.7.7,0,0,0,1.2.313A2.1,2.1,0,0,1,17.5,2.212a2.466,2.466,0,0,1,.738.485c.375.335.722.7,1.074,1.064a2.143,2.143,0,0,1,.019,3.065.7.7,0,0,0-.2.809.719.719,0,0,0,.732.441A2.142,2.142,0,0,1,22,10.244c.005.5,0,.993,0,1.49a2.15,2.15,0,0,1-2.176,2.206.7.7,0,0,0-.734.558.735.735,0,0,0,.246.7,2.139,2.139,0,0,1,.293,2.655,2.416,2.416,0,0,1-.312.393c-.357.367-.72.728-1.085,1.086a2.118,2.118,0,0,1-1.521.632m.015-1.418a2.6,2.6,0,0,0,.5-.287c.35-.319.677-.662,1.01-1a.7.7,0,0,0,.012-1.088,2.171,2.171,0,0,1,1.554-3.7.693.693,0,0,0,.736-.751c0-.481,0-.962,0-1.443a.691.691,0,0,0-.724-.74A2.091,2.091,0,0,1,17.779,8.2a2.08,2.08,0,0,1,.468-2.365.7.7,0,0,0-.009-1.071c-.311-.315-.626-.627-.939-.94A.717.717,0,0,0,16.131,3.8a2.137,2.137,0,0,1-1.445.6,2.168,2.168,0,0,1-2.219-2.144.7.7,0,0,0-.8-.781c-.465,0-.931,0-1.4,0a.7.7,0,0,0-.741.725,2.688,2.688,0,0,1-.069.566,2.163,2.163,0,0,1-3.6,1.023A.707.707,0,0,0,4.725,3.8q-.454.453-.907.908A.716.716,0,0,0,3.8,5.876a2.137,2.137,0,0,1,.6,1.47,2.166,2.166,0,0,1-2.17,2.193.694.694,0,0,0-.755.755c0,.489,0,.978,0,1.466a.692.692,0,0,0,.7.715,2.889,2.889,0,0,1,.588.069,2.164,2.164,0,0,1,1.021,3.605A.708.708,0,0,0,3.8,17.284q.452.454.907.907a.716.716,0,0,0,1.168.022,2.114,2.114,0,0,1,1.421-.6,2.161,2.161,0,0,1,2.241,2.166.7.7,0,0,0,.769.763c.474,0,.947,0,1.42,0a.71.71,0,0,0,.75-.743,2.827,2.827,0,0,1,.169-.844,2.153,2.153,0,0,1,3.478-.745,1.114,1.114,0,0,0,.6.338" fill="currentColor"/>
    <path id="Path_4338" data-name="Path 4338" d="M5.867,11.014a5.133,5.133,0,1,1,5.181,5.124,5.138,5.138,0,0,1-5.181-5.124M11,7.34A3.666,3.666,0,1,0,14.665,11,3.669,3.669,0,0,0,11,7.34" fill="currentColor"/>
  </g>
</svg>
