<svg xmlns="http://www.w3.org/2000/svg" width="20" height="22" viewBox="0 0 20 22">
  <g id="support_dashboard" data-name="support dashboard" transform="translate(-68.445 -695.457)">
    <path id="Path_4332" data-name="Path 4332" d="M46.44,6.861l0-2.13c0-.125,0-.249,0-.373a.652.652,0,0,0-.607-.636c-.129-.012-.259-.016-.389-.02l-.152,0a16.24,16.24,0,0,1-5.7-1.185,6.352,6.352,0,0,1-2.611-1.8.662.662,0,0,0-.491-.26A.831.831,0,0,0,35.9.721l-.087.091a7.421,7.421,0,0,1-.725.7,7.916,7.916,0,0,1-2.3,1.209,17.026,17.026,0,0,1-5.426.988c-.731.018-.92.21-.92.933V6.671q0,2.372,0,4.741a9.691,9.691,0,0,0,2.334,6.366,14.359,14.359,0,0,0,5.905,4.113c.357.142.724.267,1.079.39.163.055.327.111.489.168l.363.008.1-.038c.05-.02.1-.04.152-.055a15.52,15.52,0,0,0,6.274-3.549,9.969,9.969,0,0,0,3.307-7.509c-.009-1.481-.006-2.963,0-4.445m-1.358,4.894a8.17,8.17,0,0,1-2.058,5.232,13.15,13.15,0,0,1-5.383,3.7c-.169.066-.341.125-.513.183-.151.052-.3.1-.451.16a.638.638,0,0,1-.453,0,14.037,14.037,0,0,1-5.866-3.5A8.375,8.375,0,0,1,27.8,11.457q-.007-2.372,0-4.745V5.052c2.981-.243,6.079-.776,8.637-2.891l.4.285a13.173,13.173,0,0,0,1.1.735A13.629,13.629,0,0,0,42.5,4.731c.607.1,1.233.178,1.837.249.253.031.507.06.762.093q0,.967,0,1.933c0,1.556.008,3.166-.017,4.749" transform="translate(42 695)" fill="#868686"/>
    <path id="Path_4333" data-name="Path 4333" d="M39.328,10.35c-.114,0-.229,0-.355,0H38.92v-.233c0-.254,0-.5,0-.743a2.351,2.351,0,0,0-4.249-1.358,2.379,2.379,0,0,0-.45,1.444v.89h-.053c-.116,0-.223,0-.33,0a.671.671,0,0,0-.72.713q0,2.169,0,4.337a.655.655,0,0,0,.709.7q1.371,0,2.742,0t2.742,0a.654.654,0,0,0,.711-.7q.008-2.18,0-4.359a.662.662,0,0,0-.693-.693m-3.742-.28c0-.282-.01-.549.009-.817a.965.965,0,0,1,.978-.853H36.6a.973.973,0,0,1,.949.913c.008.259.006.517,0,.782v.237H35.59c0-.088,0-.176,0-.263m-1.1,1.646h4.165v3.035H34.487Z" transform="translate(41.875 694.875)" fill="#868686"/>
  </g>
</svg>
