<svg xmlns="http://www.w3.org/2000/svg" width="21" height="20" viewBox="0 0 21 20">
  <g id="words" transform="translate(0)">
    <path id="Path_4239" data-name="Path 4239" d="M89.871,17.711H74.987a1.494,1.494,0,0,1-1.5-1.492V4.659a1.494,1.494,0,0,1,1.5-1.492H89.871a1.494,1.494,0,0,1,1.5,1.492v11.56a1.494,1.494,0,0,1-1.5,1.492" transform="translate(-70.367 0.048)" fill="#eceff1"/>
    <path id="Path_4240" data-name="Path 4240" d="M82.555,19.205a.693.693,0,0,1-.409.712c-.068.03-.138.056-.208.083h-.084a1.106,1.106,0,0,0-.156-.053q-2.19-.4-4.381-.806c-2.011-.371-4.021-.75-6.035-1.111-.418-.075-.753-.209-.867-.655V2.625a.825.825,0,0,1,.7-.619c1.689-.3,3.375-.622,5.063-.934Q78.495.644,80.809.218c.35-.065.7-.145,1.045-.218h.084c.51.133.628.492.622.966Zm-4.4-8.929-.036.014c-.03-.075-.064-.149-.092-.225q-.419-1.1-.837-2.2a.714.714,0,0,0-.363-.438.727.727,0,0,0-1.024.422c-.313.81-.618,1.622-.927,2.432-.024.065-.052.128-.1.243-.022-.108-.035-.155-.042-.2-.085-.589-.165-1.179-.258-1.767a.674.674,0,0,0-.63-.572.665.665,0,0,0-.718.487,1.3,1.3,0,0,0,0,.473c.114.829.236,1.658.357,2.486.1.664.188,1.329.3,1.992a.675.675,0,0,0,.763.589.713.713,0,0,0,.614-.526q.483-1.275.969-2.549c.114-.3.23-.6.366-.957.094.244.167.429.238.615q.548,1.44,1.1,2.88a.711.711,0,0,0,.774.539.685.685,0,0,0,.613-.663c.093-.707.168-1.416.249-2.125.078-.687.157-1.375.233-2.063.066-.6.141-1.2.185-1.8a.656.656,0,0,0-.612-.713.682.682,0,0,0-.763.613c-.122,1-.235,2.007-.35,3.011" transform="translate(-70.414 0)" fill="#1565c0"/>
    <path id="Path_4241" data-name="Path 4241" d="M78.114,10.331c.116-1.019.228-2.038.35-3.057a.685.685,0,0,1,.763-.622.663.663,0,0,1,.612.724c-.044.61-.119,1.217-.185,1.825-.076.7-.155,1.4-.233,2.094-.081.72-.155,1.439-.249,2.157a.691.691,0,0,1-.613.673.711.711,0,0,1-.774-.547q-.551-1.46-1.1-2.924c-.07-.189-.143-.377-.238-.624-.136.36-.253.666-.366.972Q75.6,12.3,75.117,13.59a.717.717,0,0,1-.614.534.677.677,0,0,1-.763-.6c-.109-.673-.2-1.348-.3-2.022-.122-.841-.244-1.682-.357-2.524a1.338,1.338,0,0,1,0-.48.665.665,0,0,1,.718-.494.678.678,0,0,1,.63.581c.092.6.173,1.2.258,1.794.007.048.019.1.042.205.047-.117.074-.181.1-.247.309-.822.614-1.647.927-2.469a.724.724,0,0,1,1.388.016q.416,1.116.837,2.231c.028.077.062.152.092.228l.036-.014" transform="translate(-70.374 -0.059)" fill="#fff"/>
    <path id="Path_4242" data-name="Path 4242" d="M82.375,13.354h.3q2.776,0,5.551,0a2,2,0,0,1,.4.042.634.634,0,0,1,.019,1.222,1.793,1.793,0,0,1-.4.045q-2.8,0-5.593,0c-.087,0-.176.007-.276.012Z" transform="translate(-70.551 -0.014)" fill="#1976d2"/>
    <path id="Path_4243" data-name="Path 4243" d="M82.375,10.687h.307q2.764,0,5.529,0a2.066,2.066,0,0,1,.418.043.6.6,0,0,1,.468.6.611.611,0,0,1-.445.619,1.667,1.667,0,0,1-.395.047q-2.8,0-5.593,0h-.289Z" transform="translate(-70.551 -0.011)" fill="#1976d2"/>
    <path id="Path_4244" data-name="Path 4244" d="M82.375,8.02h.293q2.774,0,5.55,0a1.989,1.989,0,0,1,.417.045.6.6,0,0,1,.46.584.609.609,0,0,1-.43.628,1.64,1.64,0,0,1-.416.051q-2.8.006-5.593,0h-.281Z" transform="translate(-70.551 -0.008)" fill="#1976d2"/>
    <path id="Path_4245" data-name="Path 4245" d="M82.375,5.354h.3q2.776,0,5.551,0a1.993,1.993,0,0,1,.4.042.634.634,0,0,1,.015,1.222,1.8,1.8,0,0,1-.4.045q-2.785,0-5.57,0h-.3Z" transform="translate(-70.551 -0.006)" fill="#1976d2"/>
  </g>
</svg>
